<svg width="49" height="48" viewBox="0 0 49 48" fill="none" xmlns="http://www.w3.org/2000/svg">
<path d="M16.0193 6.61377C11.179 7.38816 7.27224 10.292 4.22346 14.3261C1.17467 18.3602 -0.314101 23.4586 0.0554009 28.5998C0.424903 33.741 2.62539 38.5453 6.21601 42.0502C9.80663 45.555 14.5222 47.5016 19.4179 47.4999L19.4162 42.0649C15.8221 42.0661 12.3602 40.637 9.72423 38.064C7.08823 35.4909 5.47277 31.9639 5.20151 28.1896C4.93024 24.4152 6.0232 20.6723 8.26143 17.7107C10.4996 14.7491 15.4813 12.1498 19.0346 11.5812L16.0193 6.61377Z" fill="black"/>
<path d="M19.4111 27.1057L39.388 27.1057L19.4111 47.5V27.1057Z" fill="black"/>
<path d="M28.6462 26.4837C23.7463 18.2682 13.8709 1.7227 13.5693 1.26416L16.7732 2.56335C18.4693 3.13652 21.6732 5.0853 22.6155 6.04058C22.427 5.91321 26.3093 9.28855 40.3309 23.0446C41.4616 23.0446 47.1155 24.382 49.0001 26.4837H28.6462Z" fill="black"/>
</svg>
